<?xml version="1.0" encoding="UTF-8"?>
<svg id="Layer_1" xmlns="http://www.w3.org/2000/svg" version="1.1" viewBox="0 0 1689.17 382.61">
  <!-- Generator: Adobe Illustrator 30.0.0, SVG Export Plug-In . SVG Version: 2.1.1 Build 123)  -->
  <defs>
    <style>
      .st0, .st1 {
        fill: #fdb515;
      }

      .st1, .st2 {
        fill-rule: evenodd;
      }

      .st3, .st2 {
        fill: #9fd1ff;
      }
    </style>
  </defs>
  <g id="Layer_11" data-name="Layer_1">
    <path class="st2" d="M62.36,166.52h13.78l1.26,1.82,18,26c3.77-1.04,7.8.03,10.56,2.8h0c4.24,4.23,4.25,11.09.03,15.33,0,.01-.02.02-.03.03h0c-4.23,4.24-11.1,4.26-15.34.03,0,0-.02-.02-.03-.03h0c-3.45-3.44-4.18-8.76-1.78-13l-17.04-24.6h-9.41v23.64h15.48v39.36h16.64c.55-1.3,1.34-2.48,2.34-3.48h0c4.23-4.24,11.1-4.26,15.34-.03,0,0,.02.02.03.03h0c4.24,4.23,4.25,11.09.03,15.33,0,.01-.02.02-.03.03h0c-4.23,4.24-11.1,4.26-15.34.03,0,0-.02-.02-.03-.03h0c-1-1-1.79-2.18-2.34-3.48h-25v-39.35h-7.12v90.84l.09.92v.61l.09.6.11.59.06.3.06.29.07.3v.12h13.05v-21.18c-1.3-.55-2.48-1.35-3.48-2.35h0c-4.24-4.23-4.26-11.1-.03-15.34,0,0,.02-.02.03-.03h0c4.23-4.24,11.1-4.26,15.34-.03,0,0,.02.02.03.03h0c4.24,4.23,4.26,11.1.03,15.34,0,0-.02.02-.03.03h0c-1.01,1-2.19,1.79-3.49,2.35v29.56h-17.46l.21.29.18.23.17.24.18.23.18.23.19.22.19.23.19.22.19.22.2.22.19.21.21.21.2.21.2.21.21.21.21.2.22.2.21.2.22.2.22.19.22.19.23.19.22.18.23.19.23.17.23.18.24.18.24.17.24.17.24.16.24.17.25.16.25.15.25.16.25.15.25.15.26.14.25.15.26.14.26.13.27.14.26.12.27.13.27.13.27.12.27.11.27.12.27.11.28.11.28.1.28.1.28.1.28.1.28.09.29.08.29.09.28.08.29.08.3.07.29.07.29.07.3.06.29.06.3.05.3.06h.3l.3.05h29.24v-34.22c-1.3-.55-2.48-1.35-3.48-2.35h0c-4.24-4.23-4.26-11.1-.03-15.34,0,0,.02-.02.03-.03h0c4.21-4.24,11.06-4.27,15.3-.06.02.02.04.04.06.06h0c4.24,4.23,4.26,11.1.03,15.34,0,0-.02.02-.03.03h0c-1,1-2.18,1.8-3.48,2.35v34.52h123.3c5.12,0,10.1-1.63,14.23-4.65h.1l.1-.07h0l.1-.07h.1l.1-.07h0l.15-.11h0l.09-.07h.4l.18-.16h0l.16-.15h0l.05-.05h0l.09-.08v-.05h.05l.21-.21.2-.21.2-.21.2-.21.2-.22.19-.22.19-.22.19-.23.18-.22.18-.23.18-.23.18-.24.18-.23.17-.24.17-.24c.16-.24.33-.48.49-.73l.31-.5.15-.25c.15-.25.29-.51.44-.77l.14-.26c.18-.34.36-.69.52-1.05.55-1.16,1.01-2.37,1.36-3.61l.16-.58.14-.58.07-.29.12-.6v-.29l.06-.3.05-.3v-1.21l.06-.61v-.9h-16.81l-13,7.51-2.09.57h-14.92c-.55,1.3-1.34,2.49-2.34,3.49h0c-4.23,4.24-11.1,4.26-15.34.03,0,0-.02-.02-.03-.03h0c-4.24-4.23-4.26-11.1-.03-15.34,0,0,.02-.02.03-.03h0c4.23-4.24,11.1-4.26,15.34-.03,0,0,.02.02.03.03h0c1,1,1.79,2.19,2.34,3.49h13.8l13-7.51,2.08-.58h19.42v-24h-56.65v-36.7c-1.3-.55-2.49-1.34-3.49-2.34h0c-4.24-4.23-4.25-11.09-.03-15.33,0-.01.02-.02.03-.03h0c4.23-4.24,11.1-4.26,15.34-.03,0,0,.02.02.03.03h0c4.24,4.23,4.25,11.09.03,15.33,0,.01-.02.02-.03.03h0c-1,1-2.18,1.79-3.48,2.34v28.31h48.29v-79.55h-18.86v31.13c1.3.55,2.48,1.35,3.48,2.35h0c4.24,4.23,4.26,11.1.03,15.34,0,0-.02.02-.03.03h0c-4.23,4.24-11.09,4.25-15.33.03-.01,0-.02-.02-.03-.03h0c-4.24-4.23-4.26-11.1-.03-15.34,0,0,.02-.02.03-.03h0c1-1,2.18-1.79,3.48-2.34v-39.54h27.26v-33.27l-.06-.61v-1.21l-.05-.3-.06-.3v-.3l-.12-.59-.07-.29-.14-.58-.16-.58c-.35-1.24-.81-2.45-1.36-3.61-.16-.36-.34-.71-.52-1.06l-.14-.26-.44-.76-.15-.25-.31-.5c-.16-.25-.33-.49-.49-.73l-.17-.24-.17-.24-.18-.24-.17-.23-.19-.23-.18-.23-.18-.23-.19-.22-.19-.22-.19-.22-.2-.22-.46-.17-.2-.22-.2-.21-.21-.21h-.05v-.05h0l-.34-.31h-.05l-.16-.15h0l-.18-.16h-.4l-.09-.08h0l-.15-.12h0l-.1-.08h-.1l-.1-.07h0l-.1-.07h-.1c-4.13-3.02-9.11-4.65-14.23-4.65h-110.45l-20-33.59v-30.22h8.39v28.77h14.82v-28.77h8.39v28.77h14.83v-28.77h8.4v28.77h14.82v-28.77h8.4v28.77h14.82v-28.77h8.4v28.77h16.66v-28.77h8.4v28.77h3.08c10.5-.02,20.81,2.83,29.8,8.26l.19.11h.07l.13.08.37.23.09.06h0l.5.32.12.08.39.25.14.09h0l.44.3.16.11.47.32h0l.49.34.14.1.44.32h0l.13.1.37.27.14.11.38.28.09.08.09.06.35.27.11.09h.06l.4.32.2.16.39.31h0l.17.14.3.25h0l.07.06.42.37h0l.13.12.34.29.05.05h0l.46.41h0l.09.08.35.33.16.14.32.31.16.15.38.36.06.06h0l.4.39.05.05.49.49.48.5.48.51.47.51.46.52.46.52.45.53.45.53.44.54.43.54.43.55.42.56.42.56.4.56.4.57.4.58c.26.38.52.77.77,1.16.75,1.18,1.46,2.38,2.13,3.61l.34.62.32.62c.32.63.63,1.26.93,1.89l.29.64c.87,1.93,1.65,3.91,2.31,5.93.51,1.58.95,3.18,1.34,4.81.1.47.21.94.3,1.41l.14.7.14.71.12.72.11.71.11.72.1.72.09.73.07.72.07.73.06.74.06.73v13.09h0v-6.3h29.26v8.86h-28.78v16.66h28.78v8.34h-28.78v14.83h28.78v8.4h-28.78v14.82h28.78v8.4h-28.78v14.82h28.78v8.4h-28.78v14.83h28.78v8.4h-28.78v10.43h0v21.41l-.06.74-.06.73-.07.73-.07.73-.09.72-.1.72-.11.72-.11.72-.12.71-.14.71-.14.71c-.09.47-.2.94-.3,1.4-.38,1.64-.83,3.24-1.34,4.82-.67,2.01-1.44,3.99-2.31,5.92l-.29.64c-.3.67-.61,1.3-.93,1.89l-.32.63-.34.61c-.67,1.23-1.38,2.44-2.13,3.61-.25.39-.51.78-.77,1.17l-.4.57-.4.57-.4.57-.42.56-.42.55-.43.55-.43.55-.44.54-.45.53-.45.53-.46.52-.46.52-.47.51-.48.51-.48.5-.49.49h-.05l-.4.39h0l-.06.05-.38.37-.35.25-.32.3-.16.15-.35.33-.09.08h0l-.46.41h-.05l-.34.3-.13.11h0l-.42.36-.07.06h0l-.3.25-.17.14h0l-.39.32-.2.16-.4.32h-.06l-.11.1-.35.27-.09.06-.09.07-.38.29-.14.11-.37.27-.13.1h0l-.44.32-.14.1-.49.34h0l-.47.33-.16.11-.44.29h0l-.14.09-.39.25-.12.08-.5.31h0l-.09.06-.37.23-.13.08h-.07l-.19.11c-8.97,5.41-19.25,8.26-29.72,8.25h-3.08v28.78h-8.4v-28.36h-17v28.78h-8.4v-28.78h-14.82v28.78h-8.4v-28.78h-14.82v28.78h-8.4v-28.78h-14.82v28.78h-8.43v-28.78h-14.8v28.78h-8.39v-28.78h-17.33v28.78h-8.39v-28.78h-6.13l-.73-.06-.74-.06-.73-.07-.72-.08-.73-.08-.72-.1-.72-.11-.71-.11-.72-.12-.71-.14-.7-.14-.71-.15-.7-.15-.7-.17-.69-.18-.69-.18-.69-.19-.68-.2-.68-.21-.68-.21-.68-.23-.66-.23-.67-.24-.66-.25-.66-.26-.66-.26-.65-.27-.65-.28-.64-.29-.64-.29-.63-.3-.61-.42-.63-.32-.62-.32-.62-.33-.61-.34-.61-.35-.6-.35-.6-.36-.6-.37-.59-.37-.58-.38-.58-.39-.58-.4-.57-.4-.56-.4-.56-.42-.56-.42-.55-.43-.54-.43-.54-.44-.53-.45-.53-.45-.52-.46-.52-.46-.51-.47-.51-.48-.5-.48-.49-.49-.49-.49-.48-.5-.48-.51-.47-.51-.47-.52-.45-.52-.46-.53-.44-.53-.44-.54-.44-.55-.42-.55-.42-.55-.42-.56-.41-.57-.4-.57-.39-.57c-4.38-6.45-7.41-13.72-8.9-21.37l-.13-.71-.12-.71-.12-.72-.1-.72-.1-.72-.09-.72-.08-.73-.07-.73-.06-.73-.05-.73v-6.78H0v-8.4h28.77v-16.7H0v-8.4h28.77v-14.82H0v-8.4h28.77v-14.82H0v-8.4h28.77v-14.82H0v-8.4h28.77v-14.84H0v-8.39h62.36ZM100.09,203.09c-.99-.95-2.54-.95-3.53,0h0c-.96.98-.96,2.54,0,3.52h0c.99.95,2.54.95,3.53,0h0c.96-.98.96-2.54,0-3.52h0ZM106.28,240.33c-.98-.94-2.54-.94-3.52,0h0c-.94.98-.94,2.54,0,3.52h0c.98.94,2.54.94,3.52,0h0c.94-.98.94-2.54,0-3.52h0ZM81.85,268.52c-.98-.96-2.54-.96-3.52,0h0c-.95.99-.95,2.54,0,3.53h0c.98.96,2.54.96,3.52,0h0c.95-.99.95-2.54,0-3.53ZM118.49,273.9c-.98-.96-2.54-.96-3.52,0h0c-.95.99-.95,2.54,0,3.53h0c.98.96,2.54.96,3.52,0h0c.95-.99.95-2.54,0-3.53ZM211.92,299c-.98-.96-2.54-.96-3.52,0h0c-.95.99-.95,2.54,0,3.53h0c.98.96,2.54.96,3.52,0h0c.95-.99.95-2.54,0-3.53ZM217.81,216c-.99-.95-2.54-.95-3.53,0h0c-.96.98-.96,2.54,0,3.52h0c.99.95,2.54.95,3.53,0h0c.96-.98.96-2.54,0-3.52h0ZM247.24,217.59c-.98-.94-2.54-.94-3.52,0h0c-.46.47-.72,1.11-.71,1.77,0,.66.25,1.29.71,1.76h0c.98.94,2.54.94,3.52,0h0c.46-.47.72-1.1.71-1.76,0-.66-.25-1.3-.71-1.77ZM302.12,285.12v8.4h28.78v-8.4h-28.78Z"/>
    <path class="st0" d="M84.82,133.84h3.32l19.35-.06h0l19.35-.06h3.32l24.17,41.57-23.93,37-1.66-2.87c-14.65-25.21-29.29-50.4-43.92-75.58Z"/>
    <polygon class="st0" points="139.22 304.72 139.22 226.6 161.76 191.78 171.21 177.17 184.28 156.99 199.8 133.01 244.43 133.01 184.38 226.37 184.38 304.72 139.22 304.72"/>
    <path class="st1" d="M130.4,134.11l-47.58-81.82h-45.43l-.07,46c-5.71,1.38-9.22,7.12-7.84,12.83.9,3.73,3.74,6.69,7.43,7.73v4.37c-3.19.58-6.13,2.12-8.43,4.41h0c-6.22,6.24-6.22,16.35,0,22.59h0c6.25,6.23,16.35,6.23,22.6,0h0c3.01-2.99,4.7-7.06,4.7-11.3h-5.78c0,2.72-1.07,5.32-3,7.24h0c-4,3.97-10.47,3.97-14.47,0h0c-3.99-4-3.99-10.47,0-14.47h0c1.92-1.93,4.52-3.01,7.24-3h2.88v-9.85c5.65-1.58,8.95-7.45,7.37-13.1-1.03-3.69-3.98-6.54-7.7-7.46l.07-37.38,42.67,73.35,45.34-.14h0ZM105.28,106.03l14.12,24.29-28.09.08,14-24.37h-.03ZM50.17,59.66l27.63-.09-13.74,24-13.89-23.91ZM82.48,66.83l14.12,24.28-28.09.08,14-24.36h-.03ZM73,98.9l27.65-.09-13.75,24-13.9-23.91Z"/>
    <path class="st0" d="M912.09,79.33v-4.57c-5.91-1.65-9.36-7.78-7.71-13.69,1.08-3.88,4.18-6.86,8.1-7.81V.07l5.24.25v52.94c5.96,1.44,9.63,7.44,8.19,13.41-.95,3.91-3.93,7.01-7.81,8.09v10.3h-3c-2.84,0-5.57,1.11-7.58,3.12h0c-4.17,4.19-4.17,10.96,0,15.15h0c4.19,4.17,10.95,4.17,15.14,0h0c2.01-2,3.15-4.73,3.14-7.57h6c0,4.43-1.76,8.69-4.9,11.82h0c-6.5,6.53-17.06,6.54-23.59.04-.01-.01-.03-.03-.04-.04h0c-6.52-6.53-6.52-17.1,0-23.63h0c2.4-2.4,5.48-4.01,8.82-4.62Z"/>
    <path class="st3" d="M510.55,129.9v56.33c-7.03-7.89-14.07-13.65-21.11-17.28-6.94-3.65-14.68-5.54-22.52-5.51-14.81,0-26.81,5.05-36,15.16-9.19,10.11-13.78,23.3-13.75,39.57,0,15.16,4.67,27.74,14,37.73,9.33,9.99,21.23,14.99,35.7,15,7.84.03,15.58-1.86,22.52-5.51,7.07-3.66,14.13-9.45,21.16-17.38v56.45c-7.81,3.81-15.99,6.79-24.41,8.9-8.02,1.99-16.25,3-24.51,3-9.66.09-19.28-1.16-28.6-3.7-8.59-2.37-16.73-6.14-24.1-11.15-13.64-8.95-24.75-21.26-32.26-35.75-7.41-14.41-11.12-30.6-11.11-48.56,0-14.46,2.35-27.61,7.05-39.44,4.83-12.07,12.05-23.03,21.24-32.22,8.54-8.93,18.85-15.97,30.28-20.67,11.19-4.54,23.69-6.82,37.5-6.83,8.26,0,16.49.98,24.51,2.95,8.42,2.11,16.6,5.1,24.41,8.9h0ZM539.64,311.61V122.61h51.52v73.39h68.66v-73.46h51.65v189h-51.65v-76.93h-68.66v76.95l-51.52.05ZM752.94,311.61V122.61h52v189h-52ZM894.85,311.61h-21.22v-113.44h19.71v14.48h26.17c10.16,0,23.82-10.65,23.82-23.67v-.55h44.58c-.17,10.57-1.97,19.91-5.4,28-3.41,8.31-8.92,15.58-16,21.11-5.59,4.26-12.02,7.3-18.86,8.91-7.23,1.8-18.81,2.71-34.73,2.73h-18.07v62.43ZM867.77,311.61v-119.3h25.57v-12.41h-25.57v-57.36h-21.22v189l21.22.07ZM873.63,122.61h26.77c21.07,0,35.88,1.03,44.43,3.08,7.96,1.8,15.38,5.44,21.68,10.63,7.02,5.78,12.52,13.19,16,21.59,3.25,7.85,5.06,16.23,5.37,24.72h-44.5v-.55c0-13-14.38-23.66-24.55-23.66h-25.49v15.69h-19.71v-51.5Z"/>
    <polygon class="st0" points="1110.18 121.94 1093.09 148.34 1078.7 170.56 1068.3 186.63 1043.49 224.96 1043.49 310.96 1093.2 310.96 1093.2 224.71 1159.3 121.94 1110.18 121.94"/>
    <path class="st0" d="M1201.39,121.9l-65.22,189h51.25l9.83-33.84h73.2l9.56,33.84h51.26l-65.27-189h-64.61ZM1208.39,240.28l19-62.36c1.1-3.88,2.2-7.89,3.26-12.12s2.21-8.64,3.31-13.31c1.63,6.65,2.95,12.07,4,16.26s1.85,7.27,2.42,9.17l19.26,62.36h-51.25Z"/>
    <path class="st0" d="M1479.17,216.51c7.18-9.17,10.76-21.07,10.75-35.7.12-9.12-1.75-18.15-5.46-26.48-3.5-7.79-8.9-14.58-15.69-19.75-6.41-4.71-13.74-8.03-21.51-9.74-8.28-1.94-23-2.91-44.07-2.91h-53.85v189h48.3v-74l43.37,74h58.21l-51.47-76.19c13.75-2.99,24.23-9.06,31.42-18.23ZM1431.53,205.58c-5.11,3.79-13.22,5.69-24.33,5.69h-9.56v-49.72h10.36c11.29,0,19.31,2,24.07,6,4.76,4,7.15,10.74,7.18,20.22-.03,8.09-2.61,14.02-7.72,17.81Z"/>
    <path class="st0" d="M1679.87,171.95c-6.11-12.89-15.5-23.94-27.23-32.05-9.69-6.65-20.6-11.33-32.09-13.79-12.16-2.78-32.93-4.16-62.31-4.15h-39.36v189h48c24.59,0,42.74-1.33,54.47-4,11.19-2.5,21.8-7.13,31.25-13.62,11.74-8.12,21.13-19.18,27.23-32.08,6.22-13.05,9.32-27.93,9.3-44.65-.02-16.72-3.11-31.61-9.26-44.66ZM1622.87,256.13c-9.33,8.33-24.11,12.48-44.33,12.47h-8.64v-104.45h8.64c20.23,0,35.01,4.22,44.33,12.65,9.32,8.43,13.96,21.68,13.93,39.75-.02,18.12-4.67,31.31-13.96,39.58h.03Z"/>
    <path class="st0" d="M988,130.76l-2.11-3.65,47.41-.07,2.12,3.66c7.34,12.68,16.1,27.72,23.44,40.4l-25.08,38.73-45.78-79.07Z"/>
    <path class="st1" d="M1033.72,127.69L959.79,0l-47.27.07,73.78,127.67,47.42-.05h0ZM955.29,8.57l-14.14,24.57-14.15-24.53h28.34l-.05-.04ZM1007.46,98.68l14.49,25h-28.92l14.43-25.05v.05ZM1002.82,90.68l-14.14,24.57-14.2-24.53h28.34v-.04ZM983.7,57.68l14.48,25h-28.91l14.43-25.06v.06ZM979.05,49.68l-14.13,24.56-14.2-24.53h28.33v-.03ZM959.93,16.68l14.49,25h-28.92l14.43-25Z"/>
  </g>
</svg>